<svg width="24" height="24" viewBox="0 0 24 24" fill="none" xmlns="http://www.w3.org/2000/svg">
<path d="M20.1613 14.7508C19.9245 13.352 19.3875 12.0744 18.8534 10.9151C17.248 7.37679 15.315 4.16336 13.4123 1.18955L13.1755 0.773758C12.8478 0.267091 12.4623 0 12.0163 0C11.3609 0 10.9451 0.594758 10.8267 0.773758C10.8267 0.773758 10.8267 0.773758 10.8267 0.804061L10.4109 1.45939C9.66748 2.64894 8.89372 3.89903 8.15027 5.14639C6.99102 7.1097 5.53439 9.72558 4.46327 12.5204C4.1053 13.4429 3.78039 14.3653 3.75008 15.3758C3.63169 17.9917 4.58166 20.1946 6.54493 21.9183C8.06214 23.2565 9.99515 24 11.986 24C14.8992 24 17.5481 22.5131 19.0626 19.9853C20.0732 18.3194 20.4587 16.5351 20.1613 14.7508ZM18.1099 19.4208C16.8019 21.6209 14.511 22.8986 11.9832 22.8986C10.2595 22.8986 8.5633 22.2735 7.25536 21.1143C5.55917 19.6274 4.7276 17.6944 4.81572 15.4337C4.84602 14.6021 5.11311 13.7981 5.47105 12.9362C6.5119 10.1992 7.93824 7.64388 9.06996 5.71088C9.78315 4.49106 10.5569 3.2437 11.3306 2.05415L11.7161 1.42909C11.7161 1.39879 11.7464 1.39879 11.7464 1.36852C11.807 1.28039 11.9254 1.1317 11.9832 1.10142C11.9832 1.10142 12.0714 1.13173 12.2201 1.36852L12.4569 1.754C14.3018 4.66727 16.2348 7.85036 17.8098 11.3309C18.3164 12.4598 18.8203 13.6494 19.0296 14.8995C19.3297 16.447 19.002 17.9615 18.1099 19.4208ZM12.5174 20.0734C12.5174 20.3708 12.2806 20.6076 11.9832 20.6076C9.27648 20.6076 7.10669 18.4075 7.10669 15.7311C7.10669 15.4337 7.34351 15.1969 7.64087 15.1969C7.93827 15.1969 8.17505 15.4337 8.17505 15.7311C8.20533 17.8128 9.90154 19.5089 11.9832 19.5089C12.2806 19.5089 12.5174 19.776 12.5174 20.0734Z" fill="#1AA34F"/>
</svg>
