<svg width="98" height="37" viewBox="0 0 98 37" fill="none" xmlns="http://www.w3.org/2000/svg">
<rect x="0.5" y="0.883148" width="97" height="36" rx="8" fill="white"/>
<g clip-path="url(#clip0_2707_514)">
<path d="M22.333 23.8831C21.4163 23.8831 20.6747 24.6331 20.6747 25.5498C20.6747 26.4665 21.4163 27.2165 22.333 27.2165C23.2497 27.2165 23.9997 26.4665 23.9997 25.5498C23.9997 24.6331 23.2497 23.8831 22.333 23.8831ZM17.333 10.5498V12.2165H18.9997L21.9997 18.5415L20.8747 20.5831C20.7413 20.8165 20.6663 21.0915 20.6663 21.3831C20.6663 22.2998 21.4163 23.0498 22.333 23.0498H32.333V21.3831H22.683C22.5663 21.3831 22.4747 21.2915 22.4747 21.1748L22.4997 21.0748L23.2497 19.7165H29.458C30.083 19.7165 30.633 19.3748 30.9163 18.8581L33.8997 13.4498C33.9663 13.3331 33.9997 13.1915 33.9997 13.0498C33.9997 12.5915 33.6247 12.2165 33.1663 12.2165H20.8413L20.058 10.5498H17.333ZM30.6663 23.8831C29.7497 23.8831 29.008 24.6331 29.008 25.5498C29.008 26.4665 29.7497 27.2165 30.6663 27.2165C31.583 27.2165 32.333 26.4665 32.333 25.5498C32.333 24.6331 31.583 23.8831 30.6663 23.8831Z" fill="#120309"/>
</g>
<path d="M49.6705 25.0422C48.8258 25.0422 48.0758 24.9002 47.4205 24.6161C46.7689 24.332 46.2576 23.9438 45.8864 23.4513C45.5189 22.9551 45.3371 22.3926 45.3409 21.7638C45.3371 21.2752 45.4432 20.8263 45.6591 20.4172C45.875 20.0081 46.1667 19.6672 46.5341 19.3945C46.9053 19.118 47.3182 18.9419 47.7727 18.8661V18.7866C47.1742 18.654 46.6894 18.3491 46.3182 17.8718C45.9508 17.3907 45.7689 16.8358 45.7727 16.207C45.7689 15.6085 45.9356 15.0744 46.2727 14.6047C46.6098 14.135 47.072 13.7657 47.6591 13.4968C48.2462 13.2241 48.9167 13.0877 49.6705 13.0877C50.4167 13.0877 51.0814 13.2241 51.6648 13.4968C52.2519 13.7657 52.714 14.135 53.0511 14.6047C53.392 15.0744 53.5625 15.6085 53.5625 16.207C53.5625 16.8358 53.375 17.3907 53 17.8718C52.6288 18.3491 52.1496 18.654 51.5625 18.7866V18.8661C52.017 18.9419 52.4261 19.118 52.7898 19.3945C53.1572 19.6672 53.4489 20.0081 53.6648 20.4172C53.8845 20.8263 53.9943 21.2752 53.9943 21.7638C53.9943 22.3926 53.8087 22.9551 53.4375 23.4513C53.0663 23.9438 52.5549 24.332 51.9034 24.6161C51.2557 24.9002 50.5114 25.0422 49.6705 25.0422ZM49.6705 23.4172C50.1061 23.4172 50.4848 23.3434 50.8068 23.1956C51.1288 23.0441 51.3788 22.832 51.5568 22.5593C51.7348 22.2866 51.8258 21.9722 51.8295 21.6161C51.8258 21.2449 51.7292 20.9172 51.5398 20.6331C51.3542 20.3453 51.0985 20.1199 50.7727 19.957C50.4508 19.7941 50.0833 19.7127 49.6705 19.7127C49.2538 19.7127 48.8826 19.7941 48.5568 19.957C48.2311 20.1199 47.9735 20.3453 47.7841 20.6331C47.5985 20.9172 47.5076 21.2449 47.5114 21.6161C47.5076 21.9722 47.5947 22.2866 47.7727 22.5593C47.9508 22.8282 48.2008 23.0385 48.5227 23.19C48.8485 23.3415 49.2311 23.4172 49.6705 23.4172ZM49.6705 18.1161C50.0265 18.1161 50.3409 18.0441 50.6136 17.9002C50.8902 17.7563 51.108 17.5555 51.267 17.2979C51.4261 17.0403 51.5076 16.743 51.5114 16.4059C51.5076 16.0725 51.428 15.7809 51.2727 15.5309C51.1174 15.2771 50.9015 15.082 50.625 14.9456C50.3485 14.8055 50.0303 14.7354 49.6705 14.7354C49.303 14.7354 48.9792 14.8055 48.6989 14.9456C48.4223 15.082 48.2064 15.2771 48.0511 15.5309C47.8996 15.7809 47.8258 16.0725 47.8295 16.4059C47.8258 16.743 47.9015 17.0403 48.0568 17.2979C48.2159 17.5517 48.4337 17.7525 48.7102 17.9002C48.9905 18.0441 49.3106 18.1161 49.6705 18.1161ZM59.8537 16.1559H61.8366V23.19H64.581V16.1559H66.5639V23.19H69.3082V16.1559H71.2912V24.8831H59.8537V16.1559ZM72.392 17.8434V16.1559H80.0284V17.8434H77.2045V24.8831H75.2159V17.8434H72.392Z" fill="#120309"/>
<defs>
<clipPath id="clip0_2707_514">
<rect width="20" height="20" fill="white" transform="translate(16.5 8.88315)"/>
</clipPath>
</defs>
</svg>
