<svg width="17" height="24" viewBox="0 0 17 24" fill="none" xmlns="http://www.w3.org/2000/svg">
<path d="M0.375 0.375V23.625H0.7875H0.9375H16.125V18.1875H5.8125V0.375H0.375ZM5.0625 1.125V18.4125L1.125 22.35V19.875H2.625V19.125H1.125V18H2.625V17.25H1.125V16.125H2.625V15.375H1.125V14.25H2.625V13.5H1.125V12.375H2.625V11.625H1.125V10.5H2.625V9.75H1.125V8.625H2.625V7.875H1.125V6.75H2.625V6H1.125V4.875H2.625V4.125H1.125V3H2.625V2.25H1.125V1.125H5.0625ZM15.375 22.875H1.65L5.5875 18.9375H15.375V22.875Z" fill="#1AA34F"/>
</svg>
