<svg width="207" height="61" viewBox="0 0 207 61" fill="none" xmlns="http://www.w3.org/2000/svg">
<path d="M70.366 46.476C70.6417 46.7842 70.7796 47.2384 70.7796 47.8466V50.7664H70.2605V50.0283C70.1389 50.2717 69.9604 50.4663 69.7252 50.6042C69.49 50.7421 69.2062 50.807 68.8818 50.807C68.4357 50.807 68.0788 50.6853 67.8193 50.4339C67.5598 50.1824 67.4219 49.8499 67.4219 49.4363C67.4219 49.0389 67.5435 48.7145 67.7869 48.4712C68.0302 48.2278 68.4276 48.1062 68.9629 48.1062H70.2443V47.8223C70.2443 47.4168 70.147 47.1086 69.9524 46.8977C69.7577 46.6869 69.4819 46.5814 69.1089 46.5814C68.8574 46.5814 68.6141 46.6301 68.3789 46.7274C68.1437 46.8247 67.9491 46.9626 67.7787 47.1329L67.5354 46.6544C67.7382 46.4516 67.9815 46.2976 68.2654 46.184C68.5492 46.0705 68.8493 46.0218 69.1656 46.0218C69.6928 46.0137 70.0902 46.1678 70.366 46.476ZM69.7658 50.0608C69.9848 49.8986 70.147 49.6634 70.2524 49.3471V48.5766H68.9953C68.314 48.5766 67.9734 48.8604 67.9734 49.4201C67.9734 49.6958 68.0626 49.9148 68.241 50.0689C68.4195 50.223 68.6628 50.3041 68.9872 50.3041C69.2792 50.3041 69.5468 50.223 69.7658 50.0608Z" fill="black"/>
<path d="M77.4788 49.4768C77.4788 49.8905 77.349 50.2068 77.0895 50.4258C76.83 50.6447 76.4488 50.7583 75.9378 50.7583H74.1211V46.0461H75.8811C76.3353 46.0461 76.6921 46.1516 76.9516 46.3624C77.2112 46.5733 77.3409 46.8734 77.3409 47.2627C77.3409 47.5222 77.2842 47.7412 77.1625 47.9196C77.0409 48.1062 76.8787 48.236 76.6678 48.3252C77.2112 48.4712 77.4788 48.8604 77.4788 49.4768ZM74.6483 48.1467H75.8486C76.1568 48.1467 76.392 48.0819 76.5623 47.944C76.7246 47.8061 76.8056 47.6033 76.8056 47.3438C76.8056 47.0843 76.7246 46.8815 76.5623 46.7517C76.4001 46.622 76.1649 46.5571 75.8486 46.5571H74.6483V48.1467ZM76.6921 50.0608C76.8624 49.931 76.9516 49.7201 76.9516 49.4444C76.9516 49.1686 76.8705 48.9578 76.7164 48.8199C76.5623 48.6901 76.3109 48.6171 75.9703 48.6171H74.6483V50.2554H75.9135C76.2622 50.2554 76.5218 50.1906 76.6921 50.0608Z" fill="black"/>
<path d="M83.456 46.6139H81.9474V50.7583H81.4041V46.6139H79.8955V46.0461H83.456V46.6139Z" fill="black"/>
<path d="M86.562 50.4987C86.2538 50.296 86.0105 50.004 85.8321 49.639C85.6537 49.2741 85.5645 48.8604 85.5645 48.4062C85.5645 47.952 85.6537 47.5384 85.8321 47.1735C86.0105 46.8085 86.2538 46.5246 86.562 46.3219C86.8702 46.1191 87.219 46.0218 87.6002 46.0218C87.9813 46.0218 88.3301 46.1272 88.6383 46.3219C88.9465 46.5246 89.1898 46.8085 89.3601 47.1735C89.5386 47.5384 89.6197 47.952 89.6197 48.4062C89.6197 48.8604 89.5305 49.2822 89.3601 49.639C89.1898 50.004 88.9465 50.2879 88.6383 50.4987C88.3301 50.7015 87.9813 50.8069 87.6002 50.8069C87.219 50.8069 86.8702 50.7015 86.562 50.4987ZM88.3625 50.0121C88.5896 49.858 88.7599 49.6471 88.8897 49.3633C89.0195 49.0794 89.0763 48.7631 89.0763 48.4062C89.0763 48.0494 89.0114 47.725 88.8897 47.4492C88.7599 47.1653 88.5896 46.9545 88.3625 46.8004C88.1354 46.6463 87.884 46.5733 87.6002 46.5733C87.3163 46.5733 87.0649 46.6463 86.8378 46.8004C86.6107 46.9545 86.4322 47.1653 86.3025 47.4492C86.1727 47.7331 86.1078 48.0494 86.1078 48.4062C86.1078 48.7631 86.1727 49.0875 86.3025 49.3633C86.4322 49.6471 86.6107 49.858 86.8378 50.0121C87.0649 50.1662 87.3163 50.2392 87.6002 50.2392C87.884 50.2392 88.1436 50.1662 88.3625 50.0121Z" fill="black"/>
<path d="M97.1544 46.0461V50.7583H96.6597V47.0275L95.0457 50.1824H94.8024L93.1803 47.0194V50.7583H92.6855V46.0461H93.2289L94.924 49.4444L96.6515 46.0461H97.1544Z" fill="black"/>
<path d="M101.194 50.4987C100.886 50.296 100.642 50.004 100.464 49.639C100.286 49.2741 100.196 48.8604 100.196 48.4062C100.196 47.952 100.286 47.5384 100.464 47.1735C100.642 46.8085 100.886 46.5246 101.194 46.3219C101.502 46.1191 101.851 46.0218 102.232 46.0218C102.613 46.0218 102.962 46.1272 103.27 46.3219C103.578 46.5246 103.822 46.8085 103.992 47.1735C104.17 47.5384 104.252 47.952 104.252 48.4062C104.252 48.8604 104.162 49.2822 103.992 49.639C103.822 50.004 103.578 50.2879 103.27 50.4987C102.962 50.7015 102.613 50.8069 102.232 50.8069C101.851 50.8069 101.502 50.7015 101.194 50.4987ZM103.003 50.0121C103.23 49.858 103.4 49.6471 103.53 49.3633C103.659 49.0794 103.716 48.7631 103.716 48.4062C103.716 48.0494 103.651 47.725 103.53 47.4492C103.4 47.1653 103.23 46.9545 103.003 46.8004C102.775 46.6463 102.524 46.5733 102.24 46.5733C101.956 46.5733 101.705 46.6463 101.478 46.8004C101.251 46.9545 101.072 47.1653 100.942 47.4492C100.813 47.7331 100.748 48.0494 100.748 48.4062C100.748 48.7631 100.813 49.0875 100.942 49.3633C101.072 49.6471 101.251 49.858 101.478 50.0121C101.705 50.1662 101.956 50.2392 102.24 50.2392C102.516 50.2392 102.775 50.1662 103.003 50.0121Z" fill="black"/>
<path d="M110.245 46.4516C110.537 46.6463 110.764 46.922 110.927 47.2708C111.089 47.6195 111.17 48.017 111.17 48.463C111.17 48.9253 111.089 49.3309 110.919 49.6877C110.748 50.0446 110.513 50.3203 110.205 50.515C109.905 50.7096 109.548 50.807 109.159 50.807C108.494 50.807 107.983 50.5312 107.618 49.9797C107.253 49.4282 107.074 48.6739 107.074 47.7006C107.074 46.695 107.236 45.9164 107.561 45.3811C107.885 44.8458 108.396 44.4808 109.094 44.2862L110.886 43.7995L110.975 44.3835L109.288 44.8377C108.713 44.9837 108.299 45.2513 108.023 45.6325C107.755 46.0137 107.61 46.5733 107.585 47.3114C107.747 46.9464 107.974 46.6625 108.258 46.4598C108.55 46.257 108.883 46.1516 109.256 46.1516C109.629 46.1678 109.953 46.2651 110.245 46.4516ZM109.921 50.0608C110.14 49.9067 110.31 49.6958 110.44 49.4201C110.562 49.1443 110.627 48.8361 110.627 48.4874C110.627 48.1386 110.57 47.8385 110.448 47.5709C110.327 47.3113 110.156 47.1005 109.937 46.9545C109.718 46.8085 109.467 46.7355 109.183 46.7355C108.899 46.7355 108.648 46.8085 108.429 46.9545C108.21 47.1005 108.039 47.3032 107.91 47.5709C107.788 47.8304 107.723 48.1386 107.723 48.4874C107.723 48.8361 107.788 49.1443 107.91 49.4201C108.031 49.6958 108.21 49.9067 108.429 50.0608C108.648 50.2149 108.899 50.2879 109.183 50.2879C109.451 50.2879 109.702 50.2068 109.921 50.0608Z" fill="black"/>
<path d="M114.228 46.0461H114.771V49.7932L117.439 46.0461H117.918V50.7583H117.374V47.0113L114.714 50.7583H114.228V46.0461Z" fill="black"/>
<path d="M124.617 46.0461V50.7583H124.073V46.6138H122.159L122.103 47.7817C122.062 48.7631 121.965 49.5174 121.811 50.0364C121.657 50.5636 121.389 50.8231 121 50.8231C120.894 50.8231 120.764 50.7988 120.61 50.7502L120.651 50.2067C120.74 50.2311 120.805 50.2392 120.837 50.2392C121.048 50.2392 121.202 50.1256 121.308 49.8985C121.413 49.6715 121.486 49.3876 121.519 49.0551C121.551 48.7225 121.584 48.2765 121.608 47.725L121.673 46.038H124.617V46.0461Z" fill="black"/>
<path d="M130.919 48.1062C131.178 48.3657 131.308 48.7307 131.308 49.2173C131.308 49.7201 131.17 50.1014 130.886 50.3771C130.602 50.6529 130.197 50.7745 129.67 50.7664L128.056 50.7583V46.0461H128.599V47.6925L129.775 47.7088C130.27 47.7169 130.651 47.8547 130.919 48.1062ZM130.473 50.0202C130.659 49.8418 130.756 49.5742 130.756 49.2173C130.756 48.8685 130.659 48.6171 130.473 48.4468C130.286 48.2765 130.002 48.1954 129.629 48.1873L128.591 48.1711V50.2717L129.629 50.2879C130.002 50.296 130.286 50.2068 130.473 50.0202Z" fill="black"/>
<path d="M134.228 46.0461H134.771V48.1305H137.285V46.0461H137.829V50.7583H137.285V48.682H134.771V50.7583H134.228V46.0461Z" fill="black"/>
<path d="M144.082 48.1062C144.341 48.3657 144.479 48.7307 144.479 49.2173C144.479 49.7201 144.333 50.1014 144.049 50.3771C143.765 50.6448 143.36 50.7745 142.833 50.7664L141.251 50.7583V46.0461H141.794V47.6925L142.93 47.7088C143.441 47.7169 143.822 47.8547 144.082 48.1062ZM143.644 50.0202C143.83 49.8418 143.927 49.5742 143.927 49.2173C143.927 48.8685 143.83 48.6171 143.644 48.4468C143.457 48.2765 143.173 48.1954 142.8 48.1873L141.786 48.1711V50.2717L142.8 50.2879C143.181 50.296 143.457 50.2068 143.644 50.0202ZM145.152 46.0461H145.696V50.7583H145.152V46.0461Z" fill="black"/>
<path d="M152.614 48.6009H149.273C149.305 49.0875 149.459 49.4849 149.751 49.785C150.043 50.0851 150.408 50.2392 150.846 50.2392C151.097 50.2392 151.325 50.1905 151.527 50.0851C151.738 49.9797 151.917 49.8256 152.071 49.6228L152.371 50.0364C152.192 50.2879 151.973 50.4825 151.706 50.6123C151.438 50.742 151.146 50.8069 150.83 50.8069C150.416 50.8069 150.059 50.7015 149.743 50.4987C149.427 50.296 149.175 50.004 149.005 49.639C148.827 49.2741 148.737 48.8604 148.737 48.4062C148.737 47.952 148.818 47.5384 148.989 47.1735C149.159 46.8085 149.394 46.5246 149.686 46.3219C149.986 46.1191 150.319 46.0218 150.684 46.0218C151.049 46.0218 151.381 46.1272 151.681 46.3219C151.973 46.5246 152.209 46.8085 152.371 47.1653C152.541 47.5303 152.622 47.9439 152.622 48.4062L152.614 48.6009ZM149.719 46.995C149.459 47.287 149.305 47.6601 149.273 48.1305H152.103C152.071 47.6682 151.917 47.287 151.657 46.995C151.398 46.703 151.073 46.5571 150.684 46.5571C150.303 46.5571 149.978 46.703 149.719 46.995Z" fill="black"/>
<path d="M161.057 48.6658H160.149V50.7664H159.605V46.0542H160.149V48.1224H161.065L162.468 46.0542H163.052L161.479 48.3414L163.166 50.7664H162.525L161.057 48.6658Z" fill="black"/>
<path d="M166.385 50.4987C166.077 50.296 165.834 50.004 165.655 49.639C165.477 49.2741 165.388 48.8604 165.388 48.4062C165.388 47.952 165.477 47.5384 165.655 47.1735C165.834 46.8085 166.077 46.5246 166.385 46.3219C166.693 46.1191 167.042 46.0218 167.423 46.0218C167.805 46.0218 168.153 46.1272 168.462 46.3219C168.77 46.5246 169.013 46.8085 169.183 47.1735C169.362 47.5384 169.443 47.952 169.443 48.4062C169.443 48.8604 169.354 49.2822 169.183 49.639C169.013 50.004 168.77 50.2879 168.462 50.4987C168.153 50.7015 167.805 50.8069 167.423 50.8069C167.042 50.8069 166.693 50.7015 166.385 50.4987ZM168.186 50.0121C168.413 49.858 168.583 49.6471 168.713 49.3633C168.843 49.0794 168.9 48.7631 168.9 48.4062C168.9 48.0494 168.835 47.725 168.713 47.4492C168.583 47.1653 168.413 46.9545 168.186 46.8004C167.959 46.6463 167.707 46.5733 167.423 46.5733C167.14 46.5733 166.888 46.6463 166.661 46.8004C166.434 46.9545 166.256 47.1653 166.126 47.4492C165.996 47.7331 165.931 48.0494 165.931 48.4062C165.931 48.7631 165.996 49.0875 166.126 49.3633C166.256 49.6471 166.434 49.858 166.661 50.0121C166.888 50.1662 167.14 50.2392 167.423 50.2392C167.707 50.2392 167.967 50.1662 168.186 50.0121Z" fill="black"/>
<path d="M175.867 49.4768C175.867 49.8905 175.737 50.2068 175.477 50.4258C175.218 50.6447 174.836 50.7583 174.326 50.7583H172.509V46.0461H174.269C174.723 46.0461 175.08 46.1516 175.339 46.3624C175.599 46.5733 175.729 46.8734 175.729 47.2627C175.729 47.5222 175.672 47.7412 175.55 47.9196C175.429 48.1062 175.266 48.236 175.055 48.3252C175.599 48.4712 175.867 48.8604 175.867 49.4768ZM173.036 48.1467H174.236C174.545 48.1467 174.78 48.0819 174.95 47.944C175.112 47.8061 175.193 47.6033 175.193 47.3438C175.193 47.0843 175.112 46.8815 174.95 46.7517C174.788 46.622 174.553 46.5571 174.236 46.5571H173.036V48.1467ZM175.08 50.0608C175.25 49.931 175.339 49.7201 175.339 49.4444C175.339 49.1686 175.258 48.9578 175.104 48.8199C174.95 48.6901 174.699 48.6171 174.358 48.6171H173.036V50.2554H174.301C174.65 50.2554 174.901 50.1906 175.08 50.0608Z" fill="black"/>
<path d="M182.103 46.3138C182.404 46.5165 182.647 46.7923 182.817 47.1572C182.987 47.5222 183.077 47.9358 183.077 48.4062C183.077 48.8766 182.987 49.2984 182.817 49.6634C182.647 50.0283 182.412 50.3122 182.103 50.5068C181.803 50.7096 181.463 50.8069 181.082 50.8069C180.757 50.8069 180.465 50.7258 180.206 50.5717C179.946 50.4176 179.727 50.1824 179.565 49.8742V52.502H179.021V46.0542H179.541V46.9869C179.703 46.6787 179.914 46.4354 180.181 46.2732C180.449 46.1029 180.749 46.0218 181.082 46.0218C181.463 46.0137 181.803 46.111 182.103 46.3138ZM181.811 50.0121C182.039 49.858 182.217 49.6472 182.347 49.3633C182.477 49.0794 182.541 48.7631 182.541 48.4062C182.541 48.0494 182.477 47.7331 182.347 47.4492C182.217 47.1735 182.039 46.9545 181.811 46.8004C181.584 46.6463 181.333 46.5652 181.049 46.5652C180.765 46.5652 180.514 46.6463 180.287 46.8004C180.06 46.9545 179.881 47.1735 179.751 47.4492C179.622 47.725 179.557 48.0413 179.557 48.4062C179.557 48.7631 179.622 49.0875 179.751 49.3633C179.881 49.6472 180.06 49.858 180.287 50.0121C180.514 50.1662 180.765 50.2392 181.049 50.2392C181.325 50.2392 181.576 50.1662 181.811 50.0121Z" fill="black"/>
<path d="M186.143 46.0461H186.686V49.7932L189.354 46.0461H189.833V50.7583H189.289V47.0113L186.629 50.7583H186.143V46.0461Z" fill="black"/>
<path d="M194.715 48.6658H193.807V50.7664H193.264V46.0542H193.807V48.1224H194.724L196.127 46.0542H196.711L195.137 48.3414L196.824 50.7664H196.183L194.715 48.6658Z" fill="black"/>
<path d="M199.581 46.0461H200.124V49.7932L202.793 46.0461H203.271V50.7583H202.728V47.0113L200.068 50.7583H199.581V46.0461Z" fill="black"/>
<path d="M82.6128 24.9022H76.6191L76.0595 27.6192H81.6801L80.7555 32.0151H75.1349L74.551 34.7564H80.9663L80.0336 39.1523H68.0059L71.9475 20.5064H83.5617L82.6128 24.9022Z" fill="#009245"/>
<path d="M93.3425 39.1604H87.0326L84.9482 20.5145H90.6985L91.3393 32.7288C91.3393 33.2073 91.3068 33.6534 91.2338 34.0833H91.3636C91.4366 33.848 91.5177 33.5885 91.6312 33.3128C91.7367 33.0289 93.6021 28.7709 97.2274 20.5226H103.375L93.3425 39.1604Z" fill="#009245"/>
<path d="M112.873 39.1604L112.597 35.7297H107.001L105.322 39.1604H99.1416L109.491 20.5145H116.474L118.582 39.1604H112.873ZM112.053 26.0458C112.053 25.4537 112.078 25.032 112.118 24.7725H111.989L111.745 25.4213L111.25 26.5486L108.988 31.3176H112.321L112.078 26.646L112.053 26.0458Z" fill="#009245"/>
<path d="M140.651 28.0815C140.651 30.2957 140.189 32.2503 139.264 33.9616C138.34 35.6729 137.042 36.9624 135.371 37.8465C133.7 38.7224 131.73 39.1685 129.451 39.1685H120.748L124.69 20.5226H132.119C134.925 20.5226 137.05 21.1876 138.494 22.5096C139.937 23.8235 140.651 25.6889 140.651 28.0815ZM134.682 28.5114C134.682 27.3029 134.365 26.4026 133.733 25.8025C133.1 25.2023 132.127 24.9022 130.821 24.9022H129.378L127.309 34.7564H129.199C130.919 34.7564 132.257 34.1968 133.23 33.0694C134.203 31.9583 134.682 30.4335 134.682 28.5114Z" fill="black"/>
<path d="M159.265 25.3321C159.265 26.7433 158.778 27.9518 157.805 28.9574C156.832 29.9631 155.534 30.612 153.912 30.8958V30.9445C155.275 31.4474 156.134 32.5585 156.499 34.2779L157.537 39.1523H151.568L150.879 35.0078C150.741 34.2292 150.489 33.6291 150.116 33.2154C149.751 32.8018 149.208 32.599 148.494 32.599H148.446L147.067 39.1523H141.446L145.388 20.5064H152.712C154.772 20.5064 156.386 20.9281 157.537 21.7716C158.689 22.6151 159.265 23.7992 159.265 25.3321ZM153.271 26.3783C153.271 25.7538 153.101 25.2672 152.76 24.9185C152.42 24.5697 151.901 24.3994 151.219 24.3994H150.222L149.257 28.6655H150.506C151.349 28.6655 152.022 28.4465 152.525 28.0004C153.02 27.5544 153.271 27.0191 153.271 26.3783Z" fill="black"/>
<path d="M179.16 28.3816C179.16 30.4254 178.713 32.3314 177.813 34.0913C176.913 35.8513 175.672 37.1895 174.082 38.106C172.493 39.0225 170.603 39.4848 168.405 39.4848C166.742 39.4848 165.307 39.1441 164.107 38.4629C162.906 37.7816 161.99 36.8246 161.357 35.5837C160.724 34.3428 160.408 32.9235 160.408 31.3338C160.408 29.2738 160.862 27.3597 161.771 25.6078C162.679 23.856 163.936 22.5178 165.526 21.5932C167.124 20.6686 168.973 20.1982 171.082 20.1982C173.588 20.1982 175.558 20.9281 177.002 22.3799C178.446 23.8398 179.16 25.8349 179.16 28.3816ZM173.19 28.56C173.19 27.4246 172.955 26.5568 172.485 25.9647C172.014 25.3726 171.333 25.0725 170.449 25.0725C169.638 25.0725 168.924 25.3483 168.316 25.8917C167.708 26.4351 167.237 27.1975 166.888 28.1626C166.548 29.1278 166.377 30.1416 166.377 31.1959C166.377 32.3476 166.613 33.2154 167.091 33.8075C167.57 34.3914 168.227 34.6834 169.07 34.6834C169.849 34.6834 170.546 34.4401 171.163 33.9535C171.779 33.4668 172.274 32.7288 172.639 31.7393C173.012 30.7499 173.19 29.6874 173.19 28.56Z" fill="black"/>
<path d="M202.549 39.1604H197.01L199.338 28.187L199.946 25.3889H199.841L198.875 27.7003L193.62 39.1604H188.453L187.788 28.3492C187.74 27.6192 187.707 26.6298 187.707 25.3807H187.594C187.342 27.2948 187.05 29.0467 186.726 30.6363L184.917 39.1523H179.938L183.879 20.5064H191.763L192.411 31.6501C192.411 32.2178 192.387 32.8018 192.346 33.402H192.428C192.574 32.9883 192.728 32.5504 192.882 32.0962C193.036 31.642 193.198 31.2284 193.36 30.8634L197.91 20.4983H206.499L202.549 39.1604Z" fill="black"/>
<path d="M27.1535 21.3661C27.3319 21.1957 27.4941 21.0903 27.6076 21.0173C28.297 20.6037 29.0594 20.5712 29.5379 20.555C32.8551 20.5064 36.1804 20.4577 39.4975 20.4253C43.7474 20.3766 47.9973 20.3442 52.239 20.3279C51.9389 19.7602 51.6389 19.1925 51.3388 18.6248C51.1117 18.1868 50.8765 17.7569 50.6494 17.319C42.1334 17.4001 33.6175 17.4731 25.1096 17.5542C25.1015 17.5785 25.0934 17.6028 25.0853 17.6191C24.9636 17.6353 24.8339 17.6596 24.7041 17.7083C23.9255 17.9759 23.5524 18.7788 23.4227 19.0546C22.9604 20.0279 17.9968 32.6558 11.3057 49.9797C12.2059 50.1987 13.1062 50.4258 14.0064 50.6447C16.7072 50.6772 19.4161 50.7177 22.1169 50.7502C25.7747 50.7421 29.4325 50.7258 33.0822 50.7177C34.1528 50.4095 35.3937 49.9716 36.7238 49.3146C37.7457 48.8118 38.6297 48.2846 39.384 47.7736C34.5096 47.7493 29.6352 47.7169 24.7609 47.6925V47.7007C22.6684 47.7169 20.5678 47.7331 18.4753 47.7412L22.3602 35.9C25.0042 35.9162 27.6482 35.9243 30.3003 35.9405C30.5923 34.951 30.8924 33.9616 31.1843 32.9721C28.5728 32.9478 25.9531 32.9316 23.3415 32.9072C24.1039 30.539 24.8825 28.1464 25.6774 25.7457C26.164 24.2939 26.6587 22.8259 27.1535 21.3661Z" fill="#009245"/>
<path d="M40.1797 14.9183C41.2665 14.9588 42.3614 15.0075 43.4482 15.048C43.6915 14.2857 43.9348 13.5152 44.1862 12.7528L41.3719 11.52C40.9745 12.6554 40.5771 13.7909 40.1797 14.9183Z" fill="black"/>
<path d="M45.0298 10.4089L41.4531 11.6011C42.1668 12.1364 42.9292 12.7609 43.6997 13.4989C44.2593 14.0261 44.7622 14.5452 45.2083 15.048C46.5059 15.048 47.8117 15.048 49.1094 15.048C48.8904 14.6669 48.639 14.2775 48.3632 13.8882C47.2926 12.3635 46.1004 11.2361 45.0298 10.4089Z" fill="black"/>
<path d="M54.4217 25.9323C54.2432 25.0888 53.9999 24.2534 53.9999 24.2534C53.8377 23.7019 53.6593 23.1666 53.4646 22.6313H49.9609C50.4881 23.8641 50.9098 25.1618 51.2018 26.5162C53.6512 37.9357 46.3193 49.1687 34.8188 51.5937C34.8188 51.5937 34.8187 51.5937 34.8106 51.5937C34.2429 51.7072 33.2859 51.8613 30.796 51.8938C30.2201 51.9019 29.9363 51.8938 29.6037 51.8775C29.0928 51.8451 28.6629 51.7883 28.3547 51.7397C27.7627 53.6375 27.276 55.1136 27.2112 55.0974C27.1868 55.0893 27.1787 54.8946 27.2112 54.8865C27.2274 54.8865 27.2436 54.919 27.2517 54.9352C27.276 54.9838 27.2598 55.0487 27.2112 55.1055C27.1868 55.0974 27.1787 55.0893 27.1787 55.0812C27.1868 55.0568 27.6248 55.1298 28.4926 55.3164C29.5956 55.3488 30.6905 55.3894 31.7936 55.4218C32.9452 55.3813 34.1699 55.2434 35.4514 54.9838C42.8075 53.4672 47.6089 48.536 49.9042 45.746C49.9042 45.746 56.7412 36.7029 54.4217 25.9323Z" fill="black"/>
<path d="M41.2587 22.6394C40.5693 22.6557 39.8799 22.6638 39.1905 22.68C38.7526 22.6881 38.3227 22.6962 37.8847 22.7043C34.3405 33.4182 30.7962 44.1321 27.252 54.846C29.1417 54.4891 31.0314 54.1404 32.9211 53.7835C35.703 43.394 38.4768 33.0127 41.2587 22.6394Z" fill="black"/>
<path d="M34.4533 59.4851C18.4677 59.7041 5.32064 46.9221 5.10166 30.9364C4.88267 14.9507 17.6647 1.80369 33.6504 1.58471C38.614 1.51983 43.3099 2.70396 47.4219 4.84511C42.5556 1.70637 36.7405 -0.0860351 30.5198 0.00317968C13.7068 0.238382 0.267838 14.0505 0.503041 30.8634C0.738243 47.6763 14.5503 61.1153 31.3632 60.8801C36.6513 60.8071 41.6067 59.3878 45.9053 56.9547C42.4015 58.5281 38.5329 59.4283 34.4533 59.4851Z" fill="#009245"/>
<path d="M37.3327 4.01785C36.6108 3.93675 35.8322 3.85565 35.1834 3.88809C48.9387 6.43477 58.7604 18.5842 57.6006 32.6396C56.4976 46.0137 45.9622 56.1274 32.8638 57.5386C32.8314 57.49 32.953 57.5548 33.0017 57.563C47.5437 58.0577 60.2933 47.6844 61.518 32.7531C62.7427 17.8218 52.191 5.68049 37.3327 4.01785Z" fill="black"/>
</svg>
