<svg width="92" height="16" viewBox="0 0 92 16" fill="none" xmlns="http://www.w3.org/2000/svg">
<circle cx="8" cy="7.99997" r="4" fill="#1AA34F"/>
<mask id="path-2-inside-1_75_5635" fill="white">
<path d="M0 7.99997C-1.38325e-07 9.58222 0.469192 11.1289 1.34824 12.4445C2.22729 13.7601 3.47672 14.7855 4.93853 15.391C6.40034 15.9965 8.00887 16.1549 9.56072 15.8463C11.1126 15.5376 12.538 14.7756 13.6569 13.6568C14.7757 12.538 15.5376 11.1125 15.8463 9.56069C16.155 8.00884 15.9965 6.40031 15.391 4.9385C14.7855 3.47669 13.7602 2.22726 12.4446 1.34821C11.129 0.469162 9.58225 -3.03981e-05 8 -3.05176e-05V1.29343C9.32643 1.29343 10.6231 1.68676 11.726 2.42369C12.8288 3.16061 13.6884 4.20803 14.196 5.43349C14.7036 6.65895 14.8364 8.00741 14.5777 9.30835C14.3189 10.6093 13.6802 11.8043 12.7422 12.7422C11.8043 13.6801 10.6093 14.3189 9.30838 14.5776C8.00744 14.8364 6.65898 14.7036 5.43352 14.196C4.20806 13.6884 3.16064 12.8288 2.42372 11.7259C1.68679 10.623 1.29346 9.3264 1.29346 7.99997H0Z"/>
</mask>
<path d="M0 7.99997C-1.38325e-07 9.58222 0.469192 11.1289 1.34824 12.4445C2.22729 13.7601 3.47672 14.7855 4.93853 15.391C6.40034 15.9965 8.00887 16.1549 9.56072 15.8463C11.1126 15.5376 12.538 14.7756 13.6569 13.6568C14.7757 12.538 15.5376 11.1125 15.8463 9.56069C16.155 8.00884 15.9965 6.40031 15.391 4.9385C14.7855 3.47669 13.7602 2.22726 12.4446 1.34821C11.129 0.469162 9.58225 -3.03981e-05 8 -3.05176e-05V1.29343C9.32643 1.29343 10.6231 1.68676 11.726 2.42369C12.8288 3.16061 13.6884 4.20803 14.196 5.43349C14.7036 6.65895 14.8364 8.00741 14.5777 9.30835C14.3189 10.6093 13.6802 11.8043 12.7422 12.7422C11.8043 13.6801 10.6093 14.3189 9.30838 14.5776C8.00744 14.8364 6.65898 14.7036 5.43352 14.196C4.20806 13.6884 3.16064 12.8288 2.42372 11.7259C1.68679 10.623 1.29346 9.3264 1.29346 7.99997H0Z" stroke="#E0E0E0" stroke-width="8" mask="url(#path-2-inside-1_75_5635)"/>
<circle cx="28" cy="7.99997" r="4" fill="#E0E0E0"/>
<circle cx="48" cy="7.99997" r="4" fill="#E0E0E0"/>
<circle cx="68" cy="7.99997" r="4" fill="#E0E0E0"/>
<circle cx="88" cy="7.99997" r="4" fill="#E0E0E0"/>
</svg>
