<svg width="24" height="24" viewBox="0 0 24 24" fill="none" xmlns="http://www.w3.org/2000/svg">
<path d="M23.5459 11.5771C22.4445 11.5771 21.343 11.5771 20.242 11.5771C20.8027 10.606 21.3633 9.63502 21.924 8.664C22.2269 8.13941 21.4152 7.66593 21.1127 8.18977C20.4607 9.31899 19.8087 10.4478 19.1571 11.5771C17.0501 11.5771 14.9435 11.5771 12.8365 11.5771C13.9026 9.73047 14.9687 7.88388 16.0348 6.0373C17.3177 6.0373 18.6006 6.0373 19.8835 6.0373C20.4881 6.0373 20.4889 5.09784 19.8835 5.09784C18.7813 5.09784 17.6792 5.09784 16.5774 5.09784C16.6394 4.99075 16.7014 4.88327 16.763 4.77618C17.2463 3.93894 17.7295 3.10207 18.2128 2.26483C18.5157 1.74024 17.704 1.26676 17.4015 1.7906C16.8506 2.74508 16.2993 3.69956 15.7484 4.65405C15.187 3.68153 14.6256 2.709 14.0642 1.73648C13.762 1.21302 12.95 1.68575 13.2529 2.21072C13.9041 3.33844 14.5549 4.46616 15.2062 5.5935C14.154 7.41566 13.1022 9.23782 12.05 11.0604C10.988 9.22091 9.92607 7.38146 8.86373 5.54164C9.50482 4.43121 10.1459 3.32115 10.787 2.21072C11.0899 1.68613 10.2782 1.21264 9.97567 1.73648C9.4244 2.69172 8.87275 3.64695 8.32148 4.60181C8.25873 4.49321 8.19597 4.38461 8.13321 4.27564C7.64996 3.4384 7.16671 2.60153 6.68308 1.76429C6.38095 1.24083 5.56889 1.71356 5.87177 2.23853C6.42191 3.19151 6.97243 4.14449 7.52257 5.09784C6.40049 5.09784 5.27841 5.09784 4.15633 5.09784C3.55169 5.09784 3.55094 6.0373 4.15633 6.0373C5.45916 6.0373 6.76199 6.0373 8.0652 6.0373C9.13129 7.88388 10.1974 9.73047 11.2635 11.5771C9.15571 11.5771 7.04758 11.5771 4.93983 11.5771C4.28259 10.4388 3.62535 9.3002 2.96811 8.16196C2.66598 7.6385 1.85392 8.11123 2.15679 8.6362C2.72272 9.61661 3.28865 10.597 3.85495 11.5771C3.68773 11.5771 3.5205 11.5771 3.35366 11.5771C2.38715 11.5771 1.42026 11.5771 0.453756 11.5771C-0.150876 11.5771 -0.151628 12.5165 0.453756 12.5165C1.56682 12.5165 2.67988 12.5165 3.79294 12.5165C3.24769 13.4608 2.70243 14.4056 2.15717 15.3499C1.85429 15.8745 2.66598 16.348 2.96848 15.8241C3.60505 14.7216 4.24163 13.6191 4.8782 12.5165C6.98859 12.5165 9.09897 12.5165 11.2097 12.5165C10.1726 14.3131 9.13542 16.1097 8.09789 17.906C6.78416 17.906 5.47081 17.906 4.15708 17.906C3.55245 17.906 3.55169 18.8454 4.15708 18.8454C5.28968 18.8454 6.42266 18.8454 7.55564 18.8454C7.47259 18.9893 7.38917 19.1336 7.30612 19.2776C6.82287 20.1148 6.33961 20.9517 5.85598 21.7889C5.5531 22.3135 6.36479 22.787 6.66729 22.2631C7.2242 21.2985 7.78111 20.3339 8.33802 19.3692C8.88402 20.3151 9.43041 21.2609 9.97642 22.2068C10.2785 22.7302 11.0906 22.2575 10.7877 21.7325C10.1519 20.6315 9.51646 19.5305 8.88064 18.4294C9.93734 16.5994 10.9937 14.7693 12.0504 12.9393C13.0916 14.7426 14.1329 16.5464 15.1742 18.3498C14.5177 19.4865 13.8616 20.6236 13.2051 21.7603C12.9023 22.2849 13.7139 22.7584 14.0164 22.2346C14.5831 21.2527 15.1502 20.2711 15.7169 19.2892C15.801 19.4346 15.8848 19.5801 15.9686 19.7255C16.4519 20.5627 16.9351 21.3996 17.4184 22.2368C17.7205 22.7603 18.5326 22.2876 18.2297 21.7626C17.6735 20.7995 17.1174 19.836 16.5612 18.8728C17.6525 18.8728 18.7441 18.8728 19.8354 18.8728C20.44 18.8728 20.4408 17.9334 19.8354 17.9334C18.5634 17.9334 17.291 17.9334 16.0186 17.9334C14.9758 16.1274 13.9334 14.3218 12.8906 12.5158C14.9893 12.5158 17.0881 12.5158 19.1872 12.5158C19.829 13.6277 20.4709 14.7393 21.1127 15.8512C21.4148 16.3747 22.2269 15.9019 21.924 15.377C21.3735 14.4232 20.8226 13.4695 20.2721 12.5158C20.3968 12.5158 20.5216 12.5158 20.646 12.5158C21.6125 12.5158 22.5794 12.5158 23.5459 12.5158C24.1505 12.5165 24.1516 11.5771 23.5459 11.5771Z" fill="#1AA34F"/>
</svg>
