<svg width="25" height="24" viewBox="0 0 25 24" fill="none" xmlns="http://www.w3.org/2000/svg">
<rect width="25" height="24" fill="#E5E5E5"/>
<g clip-path="url(#clip0_0_1)">
<rect width="1920" height="9940" transform="translate(-431 -9801)" fill="white"/>
<rect width="1920" height="338" transform="translate(-431 -199)" fill="#120309"/>
<path fill-rule="evenodd" clip-rule="evenodd" d="M13 31.9414C24.0457 31.9414 33 22.9871 33 11.9414C33 0.895712 24.0457 -8.05859 13 -8.05859C1.95431 -8.05859 -7 0.895712 -7 11.9414C-7 22.9871 1.95431 31.9414 13 31.9414Z" fill="white"/>
<path d="M21.1646 3.71682L3.43461 10.5538C2.22461 11.0398 2.23161 11.7148 3.21261 12.0158L7.76461 13.4358L18.2966 6.79082C18.7946 6.48782 19.2496 6.65082 18.8756 6.98282L10.3426 14.6838H10.3406L10.3426 14.6848L10.0286 19.3768C10.4886 19.3768 10.6916 19.1658 10.9496 18.9168L13.1606 16.7668L17.7596 20.1638C18.6076 20.6308 19.2166 20.3908 19.4276 19.3788L22.4466 5.15082C22.7556 3.91182 21.9736 3.35082 21.1646 3.71682Z" fill="#120309"/>
</g>
<defs>
<clipPath id="clip0_0_1">
<rect width="1920" height="9940" fill="white" transform="translate(-431 -9801)"/>
</clipPath>
</defs>
</svg>
