<svg width="25" height="24" viewBox="0 0 25 24" fill="none" xmlns="http://www.w3.org/2000/svg">
<path d="M22.079 6.85483C22.219 6.38983 22.079 6.04883 21.417 6.04883H19.224C18.666 6.04883 18.411 6.34383 18.271 6.66783C18.271 6.66783 17.156 9.38683 15.576 11.1498C15.066 11.6628 14.833 11.8248 14.555 11.8248C14.416 11.8248 14.214 11.6628 14.214 11.1978V6.85483C14.214 6.29683 14.053 6.04883 13.588 6.04883H10.142C9.794 6.04883 9.584 6.30683 9.584 6.55283C9.584 7.08083 10.374 7.20283 10.455 8.69083V11.9188C10.455 12.6258 10.328 12.7548 10.048 12.7548C9.305 12.7548 7.497 10.0258 6.424 6.90183C6.215 6.29483 6.004 6.04983 5.444 6.04983H3.252C2.625 6.04983 2.5 6.34483 2.5 6.66883C2.5 7.25083 3.243 10.1308 5.961 13.9398C7.773 16.5408 10.324 17.9508 12.648 17.9508C14.041 17.9508 14.213 17.6378 14.213 17.0978V15.1318C14.213 14.5058 14.346 14.3798 14.787 14.3798C15.111 14.3798 15.669 14.5438 16.97 15.7968C18.456 17.2828 18.702 17.9498 19.537 17.9498H21.729C22.355 17.9498 22.668 17.6368 22.488 17.0188C22.291 16.4038 21.581 15.5088 20.639 14.4498C20.127 13.8458 19.362 13.1958 19.129 12.8708C18.804 12.4518 18.898 12.2668 19.129 11.8948C19.13 11.8958 21.801 8.13383 22.079 6.85483Z" fill="#120309"/>
</svg>
