<svg width="25" height="24" viewBox="0 0 25 24" fill="none" xmlns="http://www.w3.org/2000/svg">
<path d="M20.6597 6.84024C17.7797 2.40024 11.8997 1.08024 7.33974 3.84024C2.89974 6.60024 1.45974 12.6002 4.33974 17.0402L4.57974 17.4002L3.61974 21.0002L7.21974 20.0402L7.57974 20.2802C9.13974 21.1202 10.8197 21.6002 12.4997 21.6002C14.2997 21.6002 16.0997 21.1202 17.6597 20.1602C22.0997 17.2802 23.4197 11.4002 20.6597 6.84024ZM18.1397 16.0802C17.6597 16.8002 17.0597 17.2802 16.2197 17.4002C15.7397 17.4002 15.1397 17.6402 12.7397 16.6802C10.6997 15.7202 9.01974 14.1602 7.81974 12.3602C7.09974 11.5202 6.73974 10.4402 6.61974 9.36024C6.61974 8.40024 6.97974 7.56024 7.57974 6.96024C7.81974 6.72024 8.05974 6.60024 8.29974 6.60024H8.89974C9.13974 6.60024 9.37974 6.60024 9.49974 7.08024C9.73974 7.68024 10.3397 9.12024 10.3397 9.24024C10.4597 9.36024 10.4597 9.60024 10.3397 9.72024C10.4597 9.96025 10.3397 10.2002 10.2197 10.3202C10.0997 10.4402 9.97974 10.6802 9.85974 10.8002C9.61974 10.9202 9.49974 11.1602 9.61974 11.4002C10.0997 12.1202 10.6997 12.8402 11.2997 13.4402C12.0197 14.0402 12.7397 14.5202 13.5797 14.8802C13.8197 15.0002 14.0597 15.0002 14.1797 14.7602C14.2997 14.5202 14.8997 13.9202 15.1397 13.6802C15.3797 13.4402 15.4997 13.4402 15.7397 13.5602L17.6597 14.5202C17.8997 14.6402 18.1397 14.7602 18.2597 14.8802C18.3797 15.2402 18.3797 15.7202 18.1397 16.0802Z" fill="#120309"/>
</svg>
